<?xml version="1.0" encoding="iso-8859-1"?>
<!-- Generator: Adobe Illustrator 18.0.0, SVG Export Plug-In . SVG Version: 6.00 Build 0)  -->
<!DOCTYPE svg PUBLIC "-//W3C//DTD SVG 1.1//EN" "http://www.w3.org/Graphics/SVG/1.1/DTD/svg11.dtd">
<svg version="1.1" id="Capa_1" xmlns="http://www.w3.org/2000/svg" xmlns:xlink="http://www.w3.org/1999/xlink" x="0px" y="0px"
	 viewBox="0 0 297 297" style="enable-background:new 0 0 297 297;" xml:space="preserve">
<path d="M270.293,29.648c-1.388-2.225-3.602-3.807-6.155-4.398l-25.13-5.821l0.164-7.26c0.059-2.62-0.925-5.157-2.736-7.053
	c-1.811-1.895-4.301-2.992-6.922-3.051l-32.607-0.734c-0.076-0.002-0.151-0.003-0.227-0.003c-5.355,0-9.757,4.279-9.877,9.66
	l-0.515,22.785l-2.324-0.67c-1.774-0.512-3.635-0.499-5.383-0.012l0.503-22.251c0.06-2.62-0.925-5.157-2.736-7.053
	c-1.811-1.895-4.301-2.992-6.922-3.051l-32.607-0.734c-5.504-0.13-9.981,4.2-10.104,9.657l-1.833,81.178l-3.175-46.385
	c-0.178-2.615-1.39-5.053-3.365-6.774c-1.975-1.723-4.546-2.593-7.171-2.411l-18.767,1.286v-9.034c0-5.458-4.426-9.884-9.884-9.884
	H49.905c-5.458,0-9.884,4.426-9.884,9.884v69.813h-4.928c-2.888,0-5.632,1.264-7.51,3.458c-1.877,2.194-2.701,5.101-2.255,7.955
	l28.164,179.899c0.753,4.81,4.896,8.354,9.766,8.354h168.986c4.869,0,9.013-3.545,9.766-8.354l28.164-179.899
	c0.446-2.854-0.378-5.761-2.255-7.955c-1.878-2.194-4.622-3.458-7.51-3.458h-2.84l13.964-60.222
	C272.127,34.558,271.68,31.873,270.293,29.648z M216.521,42.481l-10.59-3.051l0.409-18.115l12.846,0.289L216.521,42.481z
	 M188.503,54.982l21.974,6.328l-13.782,59.439c-8.008,5.383-16.84,9.397-26.194,11.879L188.503,54.982z M143.646,135.554
	l2.606-115.566l12.846,0.289l-1.852,81.995l-7.716,33.282H143.646z M102.661,55.664l4.805,70.204
	c-4.726-2.437-9.233-5.304-13.466-8.587l-4.157-60.74L102.661,55.664z M72.636,97.333H59.789V37.402h12.848v2.669
	c-2.14,1.962-3.402,4.839-3.189,7.96L72.636,97.333z M223.789,277.232H71.715L46.645,117.101h18.791
	c20.54,24.37,50.267,38.245,82.315,38.245c32.049,0,61.775-13.875,82.315-38.245h18.791L223.789,277.232z M224.074,97.333
	l13.459-57.955l12.513,2.898l-12.767,55.057H224.074z"/>
<g>
</g>
<g>
</g>
<g>
</g>
<g>
</g>
<g>
</g>
<g>
</g>
<g>
</g>
<g>
</g>
<g>
</g>
<g>
</g>
<g>
</g>
<g>
</g>
<g>
</g>
<g>
</g>
<g>
</g>
</svg>
